<svg width="168" height="40" viewBox="0 0 168 40" fill="none" xmlns="http://www.w3.org/2000/svg">
<path d="M162.569 5.02561V14.359H165.887V18.8718H162.569V27.282C162.569 28.1026 162.776 28.7179 163.191 29.1282C163.606 29.5384 164.228 29.7436 165.058 29.7436C165.472 29.7436 167.442 29.7436 167.442 29.7436V35.0769C167.442 35.0769 163.813 35.0769 163.295 35.0769C161.636 35.0769 159.563 34.7692 158.111 33.4359C156.659 32.1025 156.038 30.359 156.038 27.8974V18.7692H153.031V14.2564H156.038V5.02561H162.569ZM143.181 35.4872C140.175 35.4872 137.582 34.4616 135.82 32.6154C133.954 30.7692 133.124 28.3077 133.124 25.4359V24.718C133.124 21.5384 133.954 18.9743 135.612 16.9231C137.271 14.9744 139.656 13.9487 142.766 13.9487C145.566 13.9487 147.847 14.7692 149.402 16.4103C151.061 18.1538 151.786 20.4103 151.786 23.2821V26.6666H139.864V26.7692C139.967 27.8974 140.486 28.6154 141.212 29.3333C141.937 30.0513 142.974 30.359 144.114 30.359C145.359 30.359 146.291 30.2564 147.017 30.0513C147.743 29.8461 148.78 29.5385 149.817 29.0257L151.372 33.0256C150.438 33.7436 149.298 34.2564 147.847 34.7692C146.396 35.2821 144.737 35.4872 143.181 35.4872ZM142.663 18.8718C141.73 18.8718 141.004 19.1795 140.589 19.8974C140.175 20.6154 139.864 21.5384 139.759 22.5641L139.864 22.6667H145.462V22.1538C145.462 21.0256 145.254 20.3077 144.84 19.7949C144.218 19.077 143.596 18.8718 142.663 18.8718ZM121.305 35.4872C118.298 35.4872 115.706 34.4616 113.944 32.6154C112.181 30.7692 111.248 28.3077 111.248 25.4359V24.718C111.248 21.5384 112.077 18.9743 113.736 16.9231C115.395 14.9744 117.78 13.9487 120.89 13.9487C123.69 13.9487 125.97 14.7692 127.526 16.4103C129.081 18.0512 129.91 20.4103 129.91 23.2821V26.6666H117.987V26.7692C118.091 27.8974 118.609 28.6154 119.335 29.3333C120.06 30.0513 121.097 30.359 122.238 30.359C123.482 30.359 124.415 30.2564 125.141 30.0513C125.867 29.8461 126.903 29.5385 127.94 29.0257L129.496 33.0256C128.562 33.7436 127.422 34.2564 125.97 34.7692C124.623 35.2821 122.964 35.4872 121.305 35.4872ZM120.89 18.8718C119.957 18.8718 119.231 19.1795 118.817 19.8974C118.402 20.6154 118.091 21.5384 117.987 22.5641L118.091 22.6667H123.69V22.1538C123.69 21.0256 123.482 20.3077 123.067 19.7949C122.445 19.077 121.823 18.8718 120.89 18.8718ZM101.502 26.2564L103.783 14.1539H109.692L104.923 34.9743H99.4285L96.0074 23.8975H95.9033L92.4822 34.9743H86.9873L82.1142 14.2564H88.1276L90.4083 26.4615H90.5117L93.8301 14.2564H97.9772L101.502 26.2564ZM74.0269 29.1282C74.0269 28.6153 73.7159 28.1026 73.0941 27.6923C72.4722 27.282 71.4352 26.8718 69.8798 26.5641C67.4953 26.0513 65.629 25.3334 64.3849 24.4102C63.1407 23.3847 62.5186 22.0513 62.5186 20.3077C62.5186 18.4616 63.3481 16.9231 64.7996 15.5898C66.3548 14.2564 68.4285 13.7436 71.0202 13.7436C73.7159 13.7436 75.9966 14.359 77.5521 15.5898C79.2109 16.8205 79.9369 18.359 79.8328 20.4102V20.5128H73.6125C73.6125 19.6923 73.405 19.0769 72.9899 18.6667C72.5756 18.2564 71.8496 18.0512 71.0202 18.0512C70.2949 18.0512 69.7764 18.2564 69.2579 18.6667C68.7395 19.0769 68.5319 19.4872 68.5319 20.1025C68.5319 20.718 68.8429 21.1282 69.3613 21.5384C69.8798 21.9487 71.0202 22.2564 72.5756 22.5641C75.0638 23.0769 77.0336 23.7949 78.1739 24.718C79.4184 25.7436 80.0403 27.0769 80.0403 28.9231C80.0403 30.7692 79.2109 32.3077 77.5521 33.5384C75.8932 34.7692 73.7159 35.3846 71.0202 35.3846C68.221 35.3846 65.9401 34.6667 64.2812 33.2308C62.6223 31.7949 61.8965 30.2564 62.0002 28.4103V28.3077H67.91C67.91 29.3333 68.221 30.0513 68.8429 30.359C69.4655 30.6666 70.2949 31.077 71.2277 31.077C72.1605 31.077 72.7831 30.8718 73.1975 30.5641C73.8193 30.2564 74.0269 29.7436 74.0269 29.1282ZM45.8262 14.1539L46.0336 17.0257C46.7594 16 47.5888 15.1795 48.5219 14.6667C49.5587 14.0513 50.5955 13.7436 51.8397 13.7436C53.8096 13.7436 55.4684 14.4615 56.6089 15.6924C57.7494 16.9231 58.3714 19.0769 58.3714 21.9487V34.9743H52.047V22.0513C52.047 20.8205 51.8397 20.1025 51.3213 19.5897C50.8029 19.0769 50.0771 18.8718 49.144 18.8718C48.5219 18.8718 48.0035 18.9744 47.4851 19.1795C46.9667 19.3846 46.552 19.6923 46.241 20.1025V35.0769H39.8128V14.2564H45.8262V14.1539ZM35.8731 10.2564H29.3412V5.02561H35.8731V10.2564ZM35.8731 35.0769H29.3412V14.2564H35.8731V35.0769ZM15.0335 35.0769V18.6667H12.0268V14.1539H15.0335V12C15.0335 9.64103 15.7593 7.79489 17.1071 6.46157C18.5586 5.12826 20.7359 4.82052 22.2911 4.82052C22.8095 4.82052 26.4382 4.82052 26.4382 4.82052V10.0513C26.4382 10.0513 24.4683 10.0513 24.0536 10.0513C23.2242 10.0513 22.6021 10.2564 22.1874 10.6667C21.7727 11.0769 21.5653 11.6923 21.5653 12.5128V14.0513H25.6088V18.5641H21.5653V34.8717H15.0335V35.0769ZM2.59199 6.76924C2.59199 0.512825 5.9097 0 11.5084 0V4.9231C8.91642 4.9231 7.87961 5.33334 7.87961 6.87182V14.9744C7.87961 16.8205 7.98331 18.7692 6.4281 20C7.98331 21.2308 7.87961 23.0769 7.87961 25.0256V33.1282C7.87961 34.7692 8.91642 35.0769 11.5084 35.0769V40C5.9097 40 2.59199 39.4872 2.59199 33.2308V25.0256C2.59199 23.6923 2.59198 22.2564 0 22.2564V20.1025V17.9487C2.59198 17.9487 2.59199 16.4103 2.59199 15.1795V6.76924Z" fill="url(#paint0_linear_940_44)"/>
<defs>
<linearGradient id="paint0_linear_940_44" x1="-10.4109" y1="-75" x2="71.6188" y2="47.3164" gradientUnits="userSpaceOnUse">
<stop stop-color="#DF9679"/>
<stop offset="1" stop-color="#FFD0A0"/>
</linearGradient>
</defs>
</svg>
